<svg width="418" height="406" xmlns="http://www.w3.org/2000/svg"><defs><linearGradient x1="0%" y1="0%" x2="102%" y2="101%" id="a"><stop stop-color="#3023AE" offset="0%"/><stop stop-color="#C86DD7" offset="100%"/></linearGradient></defs><g fill="none" fill-rule="evenodd"><path d="M383.492 109.377V67.458c0-44.715-22.355-67.077-67.07-67.077v.042c-55.148 0-90.869 16.607-109.196 50.762-15.486 28.863-15.505 65.11-15.516 100.164-.03 68.134-.054 117.356-91.064 117.356v-.031c-22.357 0-33.537-11.177-33.537-33.534v-41.924c0-24.592-11.178-38.57-33.54-41.922 22.362-3.348 33.54-17.328 33.54-41.917V67.458c0-22.358 11.18-33.536 33.537-33.536v-.012h73.074c.099-.183.175-.373.276-.55C180.803 20.67 189.293 9.69 199.41.403h-98.763V.381c-.225 0-.426.022-.645.022H94.36v.185c-40.495 2.06-60.79 24.318-60.79 66.87v41.92c0 16.766-11.18 25.15-33.536 25.15v33.534c22.357 0 33.536 8.385 33.536 25.154v41.924c0 44.707 22.362 67.071 67.077 67.071v-.037c55.071 0 90.738-16.59 109.036-50.728 15.464-28.838 15.482-65.062 15.493-100.086.034-68.192.057-117.467 91.247-117.467v.029c22.356 0 33.536 11.178 33.536 33.536v41.92c0 24.588 11.179 38.568 33.534 41.916-22.355 3.351-33.534 17.33-33.534 41.922v41.924c0 22.357-11.18 33.534-33.536 33.534h-73.205c-.105.19-.195.397-.292.592-6.797 12.668-15.27 23.633-25.355 32.908h98.852v.037c44.715 0 67.07-22.364 67.07-67.071v-41.924c0-16.77 11.179-25.154 33.536-25.154v-33.535c-22.357 0-33.536-8.383-33.536-25.15" fill="url(#a)"/><path d="M24.578 357.27c.056-9.351 2.646-16.59 7.77-21.713 5.124-5.124 12.194-7.686 21.21-7.686h5.46v7.392H52.55c-6.216 0-10.99 2.058-14.322 6.174-3.332 4.116-5.054 9.394-5.166 15.834.112 6.44 1.834 11.718 5.166 15.834 3.332 4.116 8.106 6.174 14.322 6.174h6.468v7.392h-5.46c-9.016 0-16.086-2.562-21.21-7.686-5.124-5.124-7.714-12.362-7.77-21.714zm48.72-5.627c3.92-4.088 8.82-6.132 14.7-6.132 2.856 0 5.53.546 8.022 1.638a20.859 20.859 0 0 1 6.552 4.494c1.876 1.904 3.346 4.13 4.41 6.678s1.596 5.278 1.596 8.19-.518 5.642-1.554 8.19c-1.036 2.548-2.478 4.774-4.326 6.678-1.848 1.904-4.032 3.402-6.552 4.494-2.52 1.092-5.236 1.638-8.148 1.638-2.968 0-5.698-.546-8.19-1.638-2.492-1.092-4.662-2.59-6.51-4.494-1.848-1.904-3.29-4.13-4.326-6.678-1.036-2.548-1.554-5.278-1.554-8.19 0-5.936 1.96-10.892 5.88-14.868zm14.7.924c-3.92 0-7.07 1.288-9.45 3.864-2.38 2.576-3.57 5.936-3.57 10.08s1.19 7.504 3.57 10.08c2.38 2.576 5.53 3.864 9.45 3.864 3.976 0 7.14-1.302 9.492-3.906 2.352-2.604 3.528-5.95 3.528-10.038s-1.176-7.434-3.528-10.038c-2.352-2.604-5.516-3.906-9.492-3.906zm60.9-24.696h7.56v58.8h-19.74c-6.104 0-11.06-1.946-14.868-5.838-3.808-3.892-5.712-8.806-5.712-14.742 0-5.824 1.974-10.71 5.922-14.658 3.948-3.948 8.638-5.922 14.07-5.922 3.472 0 6.72.84 9.744 2.52v7.56c-2.8-2.016-6.048-3.024-9.744-3.024-3.36 0-6.202 1.246-8.526 3.738s-3.486 5.754-3.486 9.786c0 4.088 1.106 7.364 3.318 9.828 2.212 2.464 5.306 3.696 9.282 3.696h12.18V327.87zm37.38 17.64c9.52.392 14.28 4.34 14.28 11.844 0 9.352-6.132 14.028-18.396 14.028h-3.444v-6.468h4.032c3.752 0 6.356-.574 7.812-1.722 1.456-1.148 2.184-3.066 2.184-5.754 0-1.736-.644-3.038-1.932-3.906-1.288-.868-2.94-1.302-4.956-1.302-3.976 0-7.098 1.4-9.366 4.2-2.268 2.8-3.402 6.16-3.402 10.08 0 4.144 1.218 7.504 3.654 10.08 2.436 2.576 5.614 3.864 9.534 3.864 3.528 0 6.412-.868 8.652-2.604l5.04 4.956c-3.864 3.136-8.428 4.704-13.692 4.704-6.384 0-11.48-1.876-15.288-5.628-3.808-3.752-5.712-8.596-5.712-14.532 0-6.608 1.876-11.956 5.628-16.044 3.752-4.088 8.876-6.02 15.372-5.796zm30.996-2.52v11.256h15.624v7.392h-15.624v25.032h-7.896v-44.772c0-4.144 1.316-7.476 3.948-9.996 1.792-1.68 3.808-2.772 6.048-3.276s4.984-.756 8.232-.756h8.904v7.392h-9.996c-6.16 0-9.24 2.576-9.24 7.728zm36.876 43.68h-7.392v-33.264h-6.888l3.36-7.056h10.92v40.32zm-7.728-48.72c-.728-.952-1.092-1.988-1.092-3.108s.364-2.142 1.092-3.066c.728-.924 1.848-1.386 3.36-1.386 1.512 0 2.632.462 3.36 1.386.728.924 1.092 1.946 1.092 3.066 0 1.12-.364 2.142-1.092 3.066-.728.924-1.848 1.386-3.36 1.386-1.512 0-2.632-.448-3.36-1.344zm19.404 8.4h14.532c6.216 0 10.668.924 13.356 2.772 2.408 1.624 3.934 3.57 4.578 5.838.644 2.268.966 5.25.966 8.946v22.764h-7.392v-22.68c0-1.008-.028-1.862-.084-2.562-.056-.7-.252-1.596-.588-2.688-.336-1.092-.812-1.988-1.428-2.688-.616-.7-1.512-1.316-2.688-1.848-1.176-.532-2.604-.798-4.284-.798h-9.576v33.264h-7.392v-40.32zm54.432 40.32h-7.392v-33.264h-6.888l3.36-7.056h10.92v40.32zm-7.728-48.72c-.728-.952-1.092-1.988-1.092-3.108s.364-2.142 1.092-3.066c.728-.924 1.848-1.386 3.36-1.386 1.512 0 2.632.462 3.36 1.386.728.924 1.092 1.946 1.092 3.066 0 1.12-.364 2.142-1.092 3.066-.728.924-1.848 1.386-3.36 1.386-1.512 0-2.632-.448-3.36-1.344zm14.784 15.456l15.036-15.036v7.98h11.34v7.056h-11.34v17.304c0 1.96.322 3.584.966 4.872.644 1.288 1.582 2.198 2.814 2.73s2.394.882 3.486 1.05c1.092.168 2.45.252 4.074.252v7.056c-6.44 0-11.2-1.232-14.28-3.696-3.08-2.464-4.62-6.552-4.62-12.264v-17.304h-7.476zm33.096-7.056h7.392v21.084c0 4.536.7 7.7 2.1 9.492 1.4 1.792 3.976 2.688 7.728 2.688h8.82V346.35h7.392v38.304c0 7-1.834 12.278-5.502 15.834-3.668 3.556-9.422 5.334-17.262 5.334h-6.048v-7.056h5.292c10.248 0 15.624-4.032 16.128-12.096h-7.056c-7.336 0-12.334-1.288-14.994-3.864-2.66-2.576-3.99-7.812-3.99-15.708V346.35z" fill="#FAF8FA"/></g></svg>